<mxfile host="app.diagrams.net" agent="Mozilla/5.0 (Windows NT 10.0; Win64; x64) AppleWebKit/537.36 (KHTML, like Gecko) Chrome/136.0.0.0 Safari/537.36" version="27.0.6">
  <diagram name="Page-1" id="UW2ImWDbLDdc1KYBRxbe">
    <mxGraphModel dx="1226" dy="661" grid="1" gridSize="10" guides="1" tooltips="1" connect="1" arrows="1" fold="1" page="1" pageScale="1" pageWidth="850" pageHeight="1100" math="0" shadow="0">
      <root>
        <mxCell id="0" />
        <mxCell id="1" parent="0" />
        <mxCell id="8UEbDqk-dIBro4yHKkm--70" value="&lt;b&gt;ADMINISTRATOR&lt;/b&gt;" style="rounded=0;whiteSpace=wrap;html=1;" vertex="1" parent="1">
          <mxGeometry x="420" y="430" width="120" height="60" as="geometry" />
        </mxCell>
        <mxCell id="8UEbDqk-dIBro4yHKkm--71" value="" style="edgeStyle=orthogonalEdgeStyle;rounded=0;orthogonalLoop=1;jettySize=auto;html=1;entryX=0.75;entryY=0;entryDx=0;entryDy=0;" edge="1" parent="1">
          <mxGeometry relative="1" as="geometry">
            <mxPoint x="510.00000000000006" y="680" as="sourcePoint" />
            <mxPoint x="510.00000000000006" y="810" as="targetPoint" />
          </mxGeometry>
        </mxCell>
        <mxCell id="8UEbDqk-dIBro4yHKkm--72" value="&lt;span style=&quot;font-size: 12px;&quot;&gt;Potvrde o unosu,&amp;nbsp;&lt;/span&gt;&lt;div style=&quot;font-size: 12px;&quot;&gt;&lt;span&gt;pristup evidencijama,&lt;/span&gt;&lt;/div&gt;&lt;div style=&quot;font-size: 12px;&quot;&gt;&lt;span&gt;obavijesti&lt;/span&gt;&lt;/div&gt;" style="edgeLabel;html=1;align=center;verticalAlign=middle;resizable=0;points=[];" vertex="1" connectable="0" parent="8UEbDqk-dIBro4yHKkm--71">
          <mxGeometry x="0.0115" y="-1" relative="1" as="geometry">
            <mxPoint x="31" y="4" as="offset" />
          </mxGeometry>
        </mxCell>
        <mxCell id="8UEbDqk-dIBro4yHKkm--73" value="P0&lt;div&gt;Informacijski sustav za župni ured&lt;/div&gt;" style="rounded=1;whiteSpace=wrap;html=1;fontStyle=1" vertex="1" parent="1">
          <mxGeometry x="410" y="600" width="120" height="80" as="geometry" />
        </mxCell>
        <mxCell id="8UEbDqk-dIBro4yHKkm--74" value="&lt;b&gt;ODRŽAVANJE SUSTAVA&lt;/b&gt;" style="rounded=0;whiteSpace=wrap;html=1;" vertex="1" parent="1">
          <mxGeometry x="730" y="610" width="120" height="60" as="geometry" />
        </mxCell>
        <mxCell id="8UEbDqk-dIBro4yHKkm--75" value="&lt;b&gt;KORISNICI&lt;/b&gt;" style="rounded=0;whiteSpace=wrap;html=1;" vertex="1" parent="1">
          <mxGeometry x="70" y="610" width="120" height="60" as="geometry" />
        </mxCell>
        <mxCell id="8UEbDqk-dIBro4yHKkm--76" value="" style="endArrow=classic;html=1;rounded=0;exitX=0.92;exitY=0.013;exitDx=0;exitDy=0;exitPerimeter=0;" edge="1" parent="1" source="8UEbDqk-dIBro4yHKkm--73">
          <mxGeometry width="50" height="50" relative="1" as="geometry">
            <mxPoint x="440" y="600" as="sourcePoint" />
            <mxPoint x="520" y="490" as="targetPoint" />
          </mxGeometry>
        </mxCell>
        <mxCell id="8UEbDqk-dIBro4yHKkm--77" value="Potvrde o izvšenim&amp;nbsp;&lt;div&gt;akcijama&amp;nbsp;&lt;span style=&quot;background-color: light-dark(#ffffff, var(--ge-dark-color, #121212)); color: light-dark(rgb(0, 0, 0), rgb(255, 255, 255));&quot;&gt;i upozorenja&lt;/span&gt;&lt;/div&gt;" style="edgeLabel;html=1;align=center;verticalAlign=middle;resizable=0;points=[];rotation=0;fontSize=12;" vertex="1" connectable="0" parent="8UEbDqk-dIBro4yHKkm--76">
          <mxGeometry x="-0.0588" y="-1" relative="1" as="geometry">
            <mxPoint x="19" y="-8" as="offset" />
          </mxGeometry>
        </mxCell>
        <mxCell id="8UEbDqk-dIBro4yHKkm--78" value="" style="endArrow=classic;html=1;rounded=0;entryX=0.25;entryY=0;entryDx=0;entryDy=0;" edge="1" parent="1" target="8UEbDqk-dIBro4yHKkm--73">
          <mxGeometry width="50" height="50" relative="1" as="geometry">
            <mxPoint x="440" y="490" as="sourcePoint" />
            <mxPoint x="380" y="590" as="targetPoint" />
            <Array as="points">
              <mxPoint x="440" y="520" />
              <mxPoint x="440" y="540" />
              <mxPoint x="440" y="550" />
            </Array>
          </mxGeometry>
        </mxCell>
        <mxCell id="8UEbDqk-dIBro4yHKkm--79" value="Upravlja sustavom,&lt;div&gt;unosi obavijesti&lt;/div&gt;" style="edgeLabel;html=1;align=center;verticalAlign=middle;resizable=0;points=[];rotation=0;fontSize=12;" vertex="1" connectable="0" parent="8UEbDqk-dIBro4yHKkm--78">
          <mxGeometry x="0.0271" y="4" relative="1" as="geometry">
            <mxPoint x="-14" y="-2" as="offset" />
          </mxGeometry>
        </mxCell>
        <mxCell id="8UEbDqk-dIBro4yHKkm--80" value="" style="endArrow=classic;html=1;rounded=0;" edge="1" parent="1">
          <mxGeometry width="50" height="50" relative="1" as="geometry">
            <mxPoint x="190" y="629" as="sourcePoint" />
            <mxPoint x="410" y="629" as="targetPoint" />
          </mxGeometry>
        </mxCell>
        <mxCell id="8UEbDqk-dIBro4yHKkm--81" value="Pregled obavijesti&lt;span style=&quot;background-color: light-dark(#ffffff, var(--ge-dark-color, #121212)); color: light-dark(rgb(0, 0, 0), rgb(255, 255, 255));&quot;&gt;,&lt;/span&gt;&lt;div&gt;&lt;div&gt;prijava na događaje&amp;nbsp;&lt;/div&gt;&lt;div&gt;(hodočašća)&amp;nbsp;&lt;/div&gt;&lt;/div&gt;" style="edgeLabel;html=1;align=center;verticalAlign=middle;resizable=0;points=[];fontSize=12;" vertex="1" connectable="0" parent="8UEbDqk-dIBro4yHKkm--80">
          <mxGeometry x="-0.3352" y="4" relative="1" as="geometry">
            <mxPoint x="37" y="-6" as="offset" />
          </mxGeometry>
        </mxCell>
        <mxCell id="8UEbDqk-dIBro4yHKkm--82" value="" style="endArrow=classic;html=1;rounded=0;" edge="1" parent="1">
          <mxGeometry width="50" height="50" relative="1" as="geometry">
            <mxPoint x="410" y="660" as="sourcePoint" />
            <mxPoint x="190" y="660" as="targetPoint" />
          </mxGeometry>
        </mxCell>
        <mxCell id="8UEbDqk-dIBro4yHKkm--83" value="Potvrde o prijavama,&amp;nbsp;&lt;div&gt;prikaz obavijesti&lt;/div&gt;" style="edgeLabel;html=1;align=center;verticalAlign=middle;resizable=0;points=[];fontSize=12;" vertex="1" connectable="0" parent="8UEbDqk-dIBro4yHKkm--82">
          <mxGeometry x="0.3749" y="-1" relative="1" as="geometry">
            <mxPoint x="43" y="11" as="offset" />
          </mxGeometry>
        </mxCell>
        <mxCell id="8UEbDqk-dIBro4yHKkm--84" value="" style="endArrow=classic;html=1;rounded=0;" edge="1" parent="1">
          <mxGeometry width="50" height="50" relative="1" as="geometry">
            <mxPoint x="530" y="628" as="sourcePoint" />
            <mxPoint x="730" y="628" as="targetPoint" />
          </mxGeometry>
        </mxCell>
        <mxCell id="8UEbDqk-dIBro4yHKkm--85" value="Automatski backup podataka" style="text;html=1;align=center;verticalAlign=middle;resizable=0;points=[];autosize=1;strokeColor=none;fillColor=none;" vertex="1" parent="1">
          <mxGeometry x="540" y="600" width="180" height="30" as="geometry" />
        </mxCell>
        <mxCell id="8UEbDqk-dIBro4yHKkm--86" value="" style="endArrow=classic;html=1;rounded=0;" edge="1" parent="1">
          <mxGeometry width="50" height="50" relative="1" as="geometry">
            <mxPoint x="730" y="660" as="sourcePoint" />
            <mxPoint x="530" y="660" as="targetPoint" />
          </mxGeometry>
        </mxCell>
        <mxCell id="8UEbDqk-dIBro4yHKkm--87" value="Ažuriranja softvera, popravci sustava" style="edgeLabel;html=1;align=center;verticalAlign=middle;resizable=0;points=[];fontSize=12;" vertex="1" connectable="0" parent="8UEbDqk-dIBro4yHKkm--86">
          <mxGeometry x="0.1955" y="-4" relative="1" as="geometry">
            <mxPoint x="20" y="-6" as="offset" />
          </mxGeometry>
        </mxCell>
        <mxCell id="8UEbDqk-dIBro4yHKkm--88" value="" style="edgeStyle=orthogonalEdgeStyle;rounded=0;orthogonalLoop=1;jettySize=auto;html=1;exitX=0.25;exitY=0;exitDx=0;exitDy=0;" edge="1" parent="1">
          <mxGeometry relative="1" as="geometry">
            <mxPoint x="430" y="810" as="sourcePoint" />
            <mxPoint x="435" y="680" as="targetPoint" />
            <Array as="points">
              <mxPoint x="435" y="810" />
            </Array>
          </mxGeometry>
        </mxCell>
        <mxCell id="8UEbDqk-dIBro4yHKkm--89" value="Unos podataka,&lt;div&gt;evidencija korisnika,&lt;/div&gt;&lt;div&gt;ažuriranja aktivnosti&lt;/div&gt;" style="edgeLabel;html=1;align=center;verticalAlign=middle;resizable=0;points=[];fontSize=12;" vertex="1" connectable="0" parent="8UEbDqk-dIBro4yHKkm--88">
          <mxGeometry x="0.26" y="5" relative="1" as="geometry">
            <mxPoint x="-20" y="23" as="offset" />
          </mxGeometry>
        </mxCell>
        <mxCell id="8UEbDqk-dIBro4yHKkm--90" value="&lt;b&gt;DJELATNICI&lt;/b&gt;" style="rounded=0;whiteSpace=wrap;html=1;" vertex="1" parent="1">
          <mxGeometry x="410" y="810" width="120" height="60" as="geometry" />
        </mxCell>
      </root>
    </mxGraphModel>
  </diagram>
</mxfile>
